<svg width="3583" height="500" viewBox="0 0 3583 500" fill="none" xmlns="http://www.w3.org/2000/svg">
<path d="M0 493.346V6.654H182.51C219.899 6.654 251.267 13.6248 276.616 27.5665C302.123 41.5082 321.372 60.6781 334.363 85.076C347.513 109.316 354.087 136.882 354.087 167.776C354.087 198.986 347.513 226.711 334.363 250.951C321.214 275.19 301.806 294.281 276.141 308.222C250.475 322.006 218.869 328.897 181.321 328.897H60.3612V256.416H169.439C191.302 256.416 209.205 252.614 223.146 245.01C237.088 237.405 247.386 226.949 254.04 213.641C260.852 200.333 264.259 185.044 264.259 167.776C264.259 150.507 260.852 135.298 254.04 122.148C247.386 108.999 237.009 98.7801 222.909 91.4924C208.967 84.0463 190.985 80.3232 168.964 80.3232H88.1654V493.346H0Z" fill="white"/>
<path d="M865.554 250C865.554 302.44 855.731 347.354 836.086 384.743C816.599 421.974 789.983 450.491 756.238 470.295C722.651 490.098 684.549 500 641.932 500C599.315 500 561.134 490.098 527.388 470.295C493.801 450.333 467.186 421.736 447.54 384.506C428.054 347.117 418.31 302.281 418.31 250C418.31 197.56 428.054 152.725 447.54 115.494C467.186 78.1052 493.801 49.5089 527.388 29.7053C561.134 9.90177 599.315 0 641.932 0C684.549 0 722.651 9.90177 756.238 29.7053C789.983 49.5089 816.599 78.1052 836.086 115.494C855.731 152.725 865.554 197.56 865.554 250ZM776.913 250C776.913 213.086 771.13 181.955 759.565 156.606C748.158 131.1 732.315 111.85 712.037 98.8593C691.758 85.7098 668.39 79.135 641.932 79.135C615.474 79.135 592.106 85.7098 571.827 98.8593C551.549 111.85 535.627 131.1 524.061 156.606C512.654 181.955 506.951 213.086 506.951 250C506.951 286.914 512.654 318.124 524.061 343.631C535.627 368.98 551.549 388.229 571.827 401.378C592.106 414.369 615.474 420.865 641.932 420.865C668.39 420.865 691.758 414.369 712.037 401.378C732.315 388.229 748.158 368.98 759.565 343.631C771.13 318.124 776.913 286.914 776.913 250Z" fill="white"/>
<path d="M948.907 493.346V6.654H1131.42C1168.81 6.654 1200.17 13.1496 1225.52 26.1407C1251.03 39.1318 1270.28 57.3511 1283.27 80.7985C1296.42 104.087 1302.99 131.258 1302.99 162.31C1302.99 193.52 1296.34 220.612 1283.03 243.584C1269.88 266.397 1250.48 284.062 1224.81 296.578C1199.14 308.935 1167.62 315.114 1130.23 315.114H1000.24V241.92H1118.35C1140.21 241.92 1158.11 238.91 1172.05 232.89C1185.99 226.711 1196.29 217.76 1202.95 206.036C1209.76 194.154 1213.17 179.579 1213.17 162.31C1213.17 145.041 1209.76 130.307 1202.95 118.108C1196.13 105.751 1185.76 96.4037 1171.82 90.0665C1157.87 83.571 1139.89 80.3232 1117.87 80.3232H1037.07V493.346H948.907ZM1200.33 272.814L1320.82 493.346H1222.43L1104.09 272.814H1200.33Z" fill="white"/>
<path d="M1362.76 80.5609V6.654H1751.07V80.5609H1600.64V493.346H1513.19V80.5609H1362.76Z" fill="white"/>
<path d="M2239.25 250C2239.25 302.44 2229.42 347.354 2209.78 384.743C2190.29 421.974 2163.68 450.491 2129.93 470.295C2096.34 490.098 2058.24 500 2015.62 500C1973.01 500 1934.83 490.098 1901.08 470.295C1867.49 450.333 1840.88 421.736 1821.23 384.506C1801.75 347.117 1792 302.281 1792 250C1792 197.56 1801.75 152.725 1821.23 115.494C1840.88 78.1052 1867.49 49.5089 1901.08 29.7053C1934.83 9.90177 1973.01 0 2015.62 0C2058.24 0 2096.34 9.90177 2129.93 29.7053C2163.68 49.5089 2190.29 78.1052 2209.78 115.494C2229.42 152.725 2239.25 197.56 2239.25 250ZM2150.61 250C2150.61 213.086 2144.82 181.955 2133.26 156.606C2121.85 131.1 2106.01 111.85 2085.73 98.8593C2065.45 85.7098 2042.08 79.135 2015.62 79.135C1989.17 79.135 1965.8 85.7098 1945.52 98.8593C1925.24 111.85 1909.32 131.1 1897.75 156.606C1886.35 181.955 1880.64 213.086 1880.64 250C1880.64 286.914 1886.35 318.124 1897.75 343.631C1909.32 368.98 1925.24 388.229 1945.52 401.378C1965.8 414.369 1989.17 420.865 2015.62 420.865C2042.08 420.865 2065.45 414.369 2085.73 401.378C2106.01 388.229 2121.85 368.98 2133.26 343.631C2144.82 318.124 2150.61 286.914 2150.61 250Z" fill="white"/>
<path d="M2350.01 500L2280.25 465.116L2512.8 0L2582.57 34.8837L2350.01 500ZM2605.83 500L2536.06 465.116L2768.62 0L2838.39 34.8837L2605.83 500ZM2861.64 500L2791.87 465.116L3024.43 0L3094.2 34.8837L2861.64 500Z" fill="#64DCDD"/>
<path d="M3582.44 250C3582.44 302.44 3572.62 347.354 3552.98 384.743C3533.49 421.974 3506.87 450.491 3473.13 470.295C3439.54 490.098 3401.44 500 3358.82 500C3316.2 500 3278.02 490.098 3244.28 470.295C3210.69 450.333 3184.08 421.736 3164.43 384.506C3144.94 347.117 3135.2 302.281 3135.2 250C3135.2 197.56 3144.94 152.725 3164.43 115.494C3184.08 78.1052 3210.69 49.5089 3244.28 29.7053C3278.02 9.90177 3316.2 0 3358.82 0C3401.44 0 3439.54 9.90177 3473.13 29.7053C3506.87 49.5089 3533.49 78.1052 3552.98 115.494C3572.62 152.725 3582.44 197.56 3582.44 250ZM3493.8 250C3493.8 213.086 3488.02 181.955 3476.45 156.606C3465.05 131.1 3449.21 111.85 3428.93 98.8593C3408.65 85.7098 3385.28 79.135 3358.82 79.135C3332.36 79.135 3309 85.7098 3288.72 98.8593C3268.44 111.85 3252.52 131.1 3240.95 156.606C3229.54 181.955 3223.84 213.086 3223.84 250C3223.84 286.914 3229.54 318.124 3240.95 343.631C3252.52 368.98 3268.44 388.229 3288.72 401.378C3309 414.369 3332.36 420.865 3358.82 420.865C3385.28 420.865 3408.65 414.369 3428.93 401.378C3449.21 388.229 3465.05 368.98 3476.45 343.631C3488.02 318.124 3493.8 286.914 3493.8 250Z" fill="white"/>
</svg>
